<svg width="32" height="33" viewBox="0 0 32 33" fill="none" xmlns="http://www.w3.org/2000/svg">
<rect y="0.633301" width="32" height="32" rx="4" fill="#EB42A4"/>
<mask id="path-2-outside-1_3044_61162" maskUnits="userSpaceOnUse" x="0.600098" y="1.23328" width="31" height="31" fill="black">
<rect fill="white" x="0.600098" y="1.23328" width="31" height="31"/>
<path d="M5.77897 6.49573C5.84648 6.42822 5.96462 6.37759 6.08276 6.36072C6.20091 6.34384 6.30218 6.37759 6.42032 6.39447C6.6566 6.46198 6.84225 6.54637 6.96039 6.73202C7.11229 6.95143 7.12917 7.20459 7.36546 7.37336C7.77052 7.6434 8.29372 7.1202 8.78316 7.44087C9.00257 7.59277 9.17134 7.82905 9.34012 8.03158C9.66079 8.45352 10.049 8.84171 10.4372 9.19613C10.7409 9.46617 11.0447 9.70246 11.281 10.04C11.4329 10.2594 11.5004 10.4957 11.6355 10.732C11.838 11.1033 12.108 11.4408 12.3781 11.7784C12.6987 12.1666 13.0194 12.8248 13.5595 12.9598C13.6776 12.9767 13.7958 12.9936 13.9139 13.0442C14.1671 13.1286 14.3358 13.3649 14.5553 13.483C14.7747 13.6011 15.0278 13.6518 15.2472 13.7699C15.6692 13.9893 15.551 14.7826 15.0785 14.58C14.9603 14.5294 14.8928 14.4281 14.8253 14.3269C14.5384 14.0062 14.0827 13.9556 13.6945 13.8037C12.9181 13.4999 12.3106 12.8923 11.5848 12.4704C11.5173 12.4366 11.3992 12.386 11.3485 12.4704C12.0743 13.0948 12.8169 13.7024 13.5426 14.3269C13.6945 14.445 13.8295 14.58 13.9308 14.7151C14.032 14.8838 14.0827 15.0695 14.0152 15.2383C13.9477 15.407 13.7451 15.5421 13.5764 15.4745C13.3738 15.407 13.2894 15.1539 13.1544 14.9513C13.0025 14.7319 12.7325 14.6307 12.4962 14.4957C12.0574 14.2594 11.7536 13.8881 11.3485 13.618C10.9097 13.3142 10.454 13.0273 10.0827 12.6223C9.84645 12.386 9.62704 12.0991 9.37387 11.8796C9.10383 11.6096 8.80004 11.4071 8.49625 11.1708C7.77052 10.6138 7.14605 9.92186 6.52158 9.26364C6.30218 9.04423 6.08277 8.6898 6.2853 8.45352C6.40344 8.30162 6.6566 8.21724 6.63972 8.03158C6.60597 7.93032 6.52158 7.87969 6.4372 7.82906C6.11653 7.67716 5.71147 7.50838 5.62708 7.1202C5.54269 6.93455 5.6102 6.66451 5.77897 6.49573Z"/>
<path d="M26.2215 26.7825C26.154 26.8501 26.0358 26.9007 25.9177 26.9176C25.7996 26.9344 25.6983 26.9007 25.5802 26.8838C25.3439 26.8163 25.1582 26.7319 25.0401 26.5463C24.8882 26.3268 24.8713 26.0737 24.635 25.9049C24.23 25.6349 23.7068 26.1581 23.2173 25.8374C22.9979 25.6855 22.8291 25.4492 22.6604 25.2467C22.3397 24.8248 21.9515 24.4366 21.5633 24.0821C21.2595 23.8121 20.9557 23.5758 20.7194 23.2383C20.5675 23.0189 20.5 22.7826 20.365 22.5463C20.1625 22.175 19.8924 21.8374 19.6224 21.4999C19.3017 21.1117 18.9811 20.4535 18.441 20.3185C18.3228 20.3016 18.2047 20.2847 18.0866 20.2341C17.8334 20.1497 17.6646 19.9134 17.4452 19.7953C17.2258 19.6771 16.9726 19.6265 16.7532 19.5083C16.3313 19.2889 16.4494 18.4957 16.922 18.6982C17.0402 18.7489 17.1077 18.8501 17.1752 18.9514C17.4621 19.2721 17.9178 19.3227 18.306 19.4746C19.0823 19.7784 19.6899 20.386 20.4156 20.8079C20.4832 20.8417 20.6013 20.8923 20.6519 20.8079C19.9262 20.1834 19.1836 19.5759 18.4579 18.9514C18.306 18.8333 18.171 18.6982 18.0697 18.5632C17.9684 18.3944 17.9178 18.2088 17.9853 18.04C18.0528 17.8712 18.2553 17.7362 18.4241 17.8037C18.6266 17.8712 18.711 18.1244 18.846 18.3269C18.9979 18.5463 19.268 18.6476 19.5043 18.7826C19.9431 19.0189 20.2469 19.3902 20.6519 19.6602C21.0907 19.964 21.5464 20.251 21.9177 20.656C22.154 20.8923 22.3734 21.1792 22.6266 21.3986C22.8966 21.6687 23.2004 21.8712 23.5042 22.1075C24.23 22.6644 24.8544 23.3564 25.4789 24.0146C25.6983 24.234 25.9177 24.5885 25.7152 24.8248C25.597 24.9767 25.3439 25.061 25.3607 25.2467C25.3945 25.348 25.4789 25.3986 25.5633 25.4492C25.8839 25.6011 26.289 25.7699 26.3734 26.1581C26.4578 26.3437 26.3903 26.6138 26.2215 26.7825Z"/>
<path d="M1.6001 16.6942C1.6001 16.5987 1.64783 16.4794 1.71944 16.3839C1.79104 16.2884 1.88652 16.2407 1.98199 16.1691C2.19681 16.0497 2.38776 15.9781 2.60257 16.0259C2.86512 16.0736 3.05607 16.2407 3.34249 16.1929C3.81986 16.0975 3.81986 15.3575 4.3927 15.2382C4.65525 15.1905 4.94167 15.2382 5.20422 15.2621C5.72932 15.3337 6.2783 15.3337 6.8034 15.3098C7.20916 15.2859 7.59106 15.2382 7.99682 15.3098C8.25937 15.3575 8.47419 15.4769 8.73674 15.5485C9.1425 15.6678 9.57213 15.7156 10.0018 15.7633C10.503 15.811 11.1952 16.0497 11.6725 15.7633C11.768 15.6917 11.8635 15.6201 11.9828 15.5724C12.2215 15.453 12.5079 15.5008 12.7466 15.4292C12.9853 15.3575 13.2001 15.2143 13.4388 15.1427C13.8923 14.9995 14.3697 15.644 13.8923 15.8349C13.773 15.8826 13.6536 15.8588 13.5343 15.8349C13.1046 15.811 12.7466 16.0975 12.3647 16.2645C11.6009 16.5987 10.7417 16.5987 9.93015 16.8135C9.85855 16.8374 9.7392 16.8851 9.76307 16.9806C10.7178 16.909 11.6725 16.8135 12.6273 16.7419C12.8182 16.718 13.0092 16.718 13.1762 16.7419C13.3672 16.7896 13.5343 16.8851 13.6059 17.0522C13.6775 17.2193 13.6297 17.458 13.4627 17.5296C13.2717 17.625 13.033 17.5057 12.7944 17.458C12.5318 17.4102 12.2693 17.5296 12.0067 17.6012C11.5293 17.7444 11.052 17.6966 10.5746 17.7921C10.0495 17.8876 9.52439 18.0069 8.97542 17.9831C8.64126 17.9831 8.28323 17.9353 7.94908 17.9592C7.56718 17.9592 7.20916 18.0308 6.82727 18.0785C5.92027 18.1979 4.98941 18.1501 4.08241 18.1263C3.77212 18.1263 3.36636 18.0308 3.34249 17.7205C3.31862 17.5296 3.43796 17.2909 3.29475 17.1715C3.19928 17.1238 3.10381 17.1477 3.00834 17.1715C2.67418 17.2909 2.26842 17.458 1.93426 17.2431C1.74331 17.1715 1.6001 16.9329 1.6001 16.6942Z"/>
<path d="M30.4001 16.5841C30.4001 16.6796 30.3524 16.7989 30.2808 16.8944C30.2091 16.9898 30.1137 17.0376 30.0182 17.1092C29.8034 17.2285 29.6124 17.3001 29.3976 17.2524C29.1351 17.2047 28.9441 17.0376 28.6577 17.0853C28.1803 17.1808 28.1803 17.9207 27.6075 18.0401C27.3449 18.0878 27.0585 18.0401 26.796 18.0162C26.2709 17.9446 25.7219 17.9446 25.1968 17.9684C24.791 17.9923 24.4091 18.0401 24.0034 17.9684C23.7408 17.9207 23.526 17.8014 23.2635 17.7298C22.8577 17.6104 22.4281 17.5627 21.9984 17.5149C21.4972 17.4672 20.805 17.2285 20.3277 17.5149C20.2322 17.5866 20.1367 17.6582 20.0174 17.7059C19.7787 17.8252 19.4923 17.7775 19.2536 17.8491C19.0149 17.9207 18.8001 18.0639 18.5614 18.1355C18.1079 18.2787 17.6305 17.6343 18.1079 17.4433C18.2272 17.3956 18.3466 17.4195 18.4659 17.4433C18.8956 17.4672 19.2536 17.1808 19.6355 17.0137C20.3993 16.6796 21.2585 16.6796 22.07 16.4647C22.1416 16.4409 22.261 16.3931 22.2371 16.2977C21.2824 16.3693 20.3277 16.4647 19.3729 16.5363C19.182 16.5602 18.991 16.5602 18.824 16.5363C18.633 16.4886 18.4659 16.3931 18.3943 16.2261C18.3227 16.059 18.3705 15.8203 18.5375 15.7487C18.7285 15.6532 18.9672 15.7726 19.2058 15.8203C19.4684 15.868 19.7309 15.7487 19.9935 15.6771C20.4709 15.5339 20.9482 15.5816 21.4256 15.4861C21.9507 15.3907 22.4758 15.2713 23.0248 15.2952C23.3589 15.2952 23.717 15.3429 24.0511 15.3191C24.433 15.3191 24.791 15.2475 25.1729 15.1997C26.0799 15.0804 27.0108 15.1281 27.9178 15.152C28.2281 15.152 28.6338 15.2475 28.6577 15.5577C28.6816 15.7487 28.5622 15.9874 28.7054 16.1067C28.8009 16.1545 28.8964 16.1306 28.9919 16.1067C29.326 15.9874 29.7318 15.8203 30.0659 16.0351C30.2569 16.1067 30.4001 16.3454 30.4001 16.5841Z"/>
<path d="M26.2271 6.4898C26.1596 6.42229 26.0415 6.37166 25.9233 6.35478C25.8052 6.33791 25.7039 6.37166 25.5858 6.38853C25.3495 6.45604 25.1639 6.54044 25.0457 6.72609C24.8938 6.9455 24.8769 7.19866 24.6406 7.36743C24.2356 7.63747 23.7124 7.11427 23.2229 7.43494C23.0035 7.58684 22.8348 7.82312 22.666 8.02565C22.3453 8.44759 21.9571 8.83577 21.569 9.1902C21.2652 9.46024 20.9614 9.69652 20.7251 10.0341C20.5732 10.2535 20.5057 10.4898 20.3707 10.7261C20.1681 11.0974 19.8981 11.4349 19.628 11.7724C19.3074 12.1606 18.9867 12.8189 18.4466 12.9539C18.3285 12.9707 18.2103 12.9876 18.0922 13.0383C17.839 13.1226 17.6703 13.3589 17.4509 13.4771C17.2314 13.5952 16.9783 13.6459 16.7589 13.764C16.3369 13.9834 16.4551 14.7766 16.9277 14.5741C17.0458 14.5235 17.1133 14.4222 17.1808 14.3209C17.4677 14.0003 17.9234 13.9496 18.3116 13.7978C19.088 13.494 19.6956 12.8864 20.4213 12.4644C20.4888 12.4307 20.6069 12.38 20.6576 12.4644C19.9318 13.0889 19.1892 13.6965 18.4635 14.3209C18.3116 14.4391 18.1766 14.5741 18.0753 14.7091C17.9741 14.8779 17.9234 15.0636 17.9909 15.2323C18.0584 15.4011 18.261 15.5361 18.4297 15.4686C18.6323 15.4011 18.7167 15.1479 18.8517 14.9454C19.0036 14.726 19.2736 14.6247 19.5099 14.4897C19.9487 14.2534 20.2525 13.8821 20.6576 13.6121C21.0964 13.3083 21.5521 13.0214 21.9234 12.6163C22.1597 12.38 22.3791 12.0931 22.6322 11.8737C22.9023 11.6037 23.2061 11.4011 23.5099 11.1649C24.2356 10.6079 24.8601 9.91593 25.4845 9.25771C25.7039 9.0383 25.9233 8.68387 25.7208 8.44759C25.6027 8.29569 25.3495 8.2113 25.3664 8.02565C25.4001 7.92439 25.4845 7.87376 25.5689 7.82312C25.8896 7.67123 26.2946 7.50245 26.379 7.11427C26.4634 6.92862 26.3959 6.65858 26.2271 6.4898Z"/>
<path d="M5.78462 26.7766C5.85213 26.8441 5.97027 26.8948 6.08841 26.9116C6.20655 26.9285 6.30782 26.8948 6.42596 26.8779C6.66225 26.8104 6.8479 26.726 6.96604 26.5403C7.11794 26.3209 7.13482 26.0678 7.3711 25.899C7.77616 25.629 8.29936 26.1522 8.78881 25.8315C9.00822 25.6796 9.17699 25.4433 9.34576 25.2408C9.66644 24.8188 10.0546 24.4307 10.4428 24.0762C10.7466 23.8062 11.0504 23.5699 11.2867 23.2324C11.4386 23.013 11.5061 22.7767 11.6411 22.5404C11.8436 22.1691 12.1137 21.8315 12.3837 21.494C12.7044 21.1058 13.0251 20.4476 13.5651 20.3126C13.6833 20.2957 13.8014 20.2788 13.9196 20.2282C14.1727 20.1438 14.3415 19.9075 14.5609 19.7894C14.7803 19.6712 15.0335 19.6206 15.2529 19.5024C15.6748 19.283 15.5567 18.4898 15.0841 18.6923C14.966 18.743 14.8985 18.8442 14.8309 18.9455C14.544 19.2662 14.0883 19.3168 13.7002 19.4687C12.9238 19.7725 12.3162 20.3801 11.5905 20.802C11.523 20.8358 11.4048 20.8864 11.3542 20.802C12.0799 20.1775 12.8225 19.57 13.5483 18.9455C13.7001 18.8273 13.8352 18.6923 13.9364 18.5573C14.0377 18.3885 14.0883 18.2029 14.0208 18.0341C13.9533 17.8653 13.7508 17.7303 13.582 17.7978C13.3795 17.8653 13.2951 18.1185 13.1601 18.321C13.0082 18.5404 12.7381 18.6417 12.5019 18.7767C12.063 19.013 11.7592 19.3843 11.3542 19.6543C10.9154 19.9581 10.4597 20.2451 10.0884 20.6501C9.85209 20.8864 9.63268 21.1733 9.37952 21.3927C9.10948 21.6628 8.80569 21.8653 8.5019 22.1016C7.77617 22.6585 7.1517 23.3505 6.52723 24.0087C6.30782 24.2281 6.08842 24.5826 6.29095 24.8188C6.40909 24.9707 6.66225 25.0551 6.64537 25.2408C6.61162 25.342 6.52723 25.3927 6.44284 25.4433C6.12217 25.5952 5.71711 25.764 5.63273 26.1522C5.54834 26.3378 5.61584 26.6079 5.78462 26.7766Z"/>
<path d="M16.0611 2.23328C15.9656 2.23328 15.8462 2.28101 15.7508 2.35262C15.6553 2.42422 15.6076 2.5197 15.536 2.61517C15.4166 2.82999 15.345 3.02093 15.3927 3.23575C15.4405 3.4983 15.6076 3.68925 15.5598 3.97567C15.4643 4.45304 14.7244 4.45303 14.6051 5.02588C14.5574 5.28843 14.6051 5.57485 14.629 5.8374C14.7006 6.3625 14.7006 6.91148 14.6767 7.43658C14.6528 7.84234 14.6051 8.22423 14.6767 8.63C14.7244 8.89255 14.8438 9.10736 14.9154 9.36992C15.0347 9.77568 15.0825 10.2053 15.1302 10.6349C15.1779 11.1362 15.4166 11.8284 15.1302 12.3057C15.0586 12.4012 14.987 12.4967 14.9392 12.616C14.8199 12.8547 14.8676 13.1411 14.796 13.3798C14.7244 13.6185 14.5812 13.8333 14.5096 14.072C14.3664 14.5255 15.0108 15.0028 15.2018 14.5255C15.2495 14.4061 15.2257 14.2868 15.2018 14.1674C15.1779 13.7378 15.4644 13.3798 15.6314 12.9979C15.9656 12.2341 15.9656 11.3749 16.1804 10.5633C16.2043 10.4917 16.252 10.3724 16.3475 10.3963C16.2759 11.351 16.1804 12.3057 16.1088 13.2605C16.0849 13.4514 16.0849 13.6423 16.1088 13.8094C16.1565 14.0004 16.252 14.1674 16.4191 14.239C16.5862 14.3107 16.8248 14.2629 16.8964 14.0958C16.9919 13.9049 16.8726 13.6662 16.8248 13.4275C16.7771 13.165 16.8964 12.9024 16.9681 12.6399C17.1113 12.1625 17.0635 11.6851 17.159 11.2078C17.2545 10.6827 17.3738 10.1576 17.3499 9.6086C17.3499 9.27444 17.3022 8.91641 17.3261 8.58226C17.3261 8.20036 17.3977 7.84234 17.4454 7.46045C17.5648 6.55345 17.517 5.62259 17.4932 4.71559C17.4932 4.4053 17.3977 3.99954 17.0874 3.97567C16.8964 3.9518 16.6578 4.07114 16.5384 3.92793C16.4907 3.83246 16.5146 3.73699 16.5384 3.64151C16.6578 3.30736 16.8248 2.9016 16.61 2.56744C16.5384 2.37649 16.2997 2.23328 16.0611 2.23328Z"/>
<path d="M15.951 31.0333C16.0464 31.0333 16.1658 30.9855 16.2613 30.9139C16.3567 30.8423 16.4045 30.7469 16.4761 30.6514C16.5954 30.4366 16.667 30.2456 16.6193 30.0308C16.5715 29.7683 16.4045 29.5773 16.4522 29.2909C16.5477 28.8135 17.2876 28.8135 17.4069 28.2407C17.4547 27.9781 17.4069 27.6917 17.3831 27.4292C17.3115 26.9041 17.3115 26.3551 17.3353 25.83C17.3592 25.4242 17.4069 25.0423 17.3353 24.6366C17.2876 24.374 17.1683 24.1592 17.0966 23.8966C16.9773 23.4909 16.9296 23.0612 16.8818 22.6316C16.8341 22.1304 16.5954 21.4382 16.8818 20.9608C16.9534 20.8654 17.0251 20.7699 17.0728 20.6505C17.1921 20.4119 17.1444 20.1254 17.216 19.8868C17.2876 19.6481 17.4308 19.4333 17.5024 19.1946C17.6456 18.7411 17.0012 18.2637 16.8102 18.7411C16.7625 18.8604 16.7864 18.9798 16.8102 19.0991C16.8341 19.5287 16.5477 19.8868 16.3806 20.2686C16.0464 21.0324 16.0464 21.8917 15.8316 22.7032C15.8078 22.7748 15.76 22.8942 15.6645 22.8703C15.7362 21.9156 15.8316 20.9608 15.9032 20.0061C15.9271 19.8152 15.9271 19.6242 15.9032 19.4571C15.8555 19.2662 15.76 19.0991 15.5929 19.0275C15.4259 18.9559 15.1872 19.0036 15.1156 19.1707C15.0201 19.3617 15.1394 19.6003 15.1872 19.839C15.2349 20.1016 15.1156 20.3641 15.044 20.6267C14.9008 21.104 14.9485 21.5814 14.853 22.0588C14.7576 22.5839 14.6382 23.109 14.6621 23.658C14.6621 23.9921 14.7098 24.3501 14.686 24.6843C14.686 25.0662 14.6143 25.4242 14.5666 25.8061C14.4473 26.7131 14.495 27.644 14.5189 28.551C14.5189 28.8613 14.6143 29.267 14.9246 29.2909C15.1156 29.3148 15.3543 29.1954 15.4736 29.3386C15.5213 29.4341 15.4975 29.5296 15.4736 29.625C15.3543 29.9592 15.1872 30.365 15.402 30.6991C15.4736 30.8901 15.7123 31.0333 15.951 31.0333Z"/>
</mask>
<path d="M5.77897 6.49573C5.84648 6.42822 5.96462 6.37759 6.08276 6.36072C6.20091 6.34384 6.30218 6.37759 6.42032 6.39447C6.6566 6.46198 6.84225 6.54637 6.96039 6.73202C7.11229 6.95143 7.12917 7.20459 7.36546 7.37336C7.77052 7.6434 8.29372 7.1202 8.78316 7.44087C9.00257 7.59277 9.17134 7.82905 9.34012 8.03158C9.66079 8.45352 10.049 8.84171 10.4372 9.19613C10.7409 9.46617 11.0447 9.70246 11.281 10.04C11.4329 10.2594 11.5004 10.4957 11.6355 10.732C11.838 11.1033 12.108 11.4408 12.3781 11.7784C12.6987 12.1666 13.0194 12.8248 13.5595 12.9598C13.6776 12.9767 13.7958 12.9936 13.9139 13.0442C14.1671 13.1286 14.3358 13.3649 14.5553 13.483C14.7747 13.6011 15.0278 13.6518 15.2472 13.7699C15.6692 13.9893 15.551 14.7826 15.0785 14.58C14.9603 14.5294 14.8928 14.4281 14.8253 14.3269C14.5384 14.0062 14.0827 13.9556 13.6945 13.8037C12.9181 13.4999 12.3106 12.8923 11.5848 12.4704C11.5173 12.4366 11.3992 12.386 11.3485 12.4704C12.0743 13.0948 12.8169 13.7024 13.5426 14.3269C13.6945 14.445 13.8295 14.58 13.9308 14.7151C14.032 14.8838 14.0827 15.0695 14.0152 15.2383C13.9477 15.407 13.7451 15.5421 13.5764 15.4745C13.3738 15.407 13.2894 15.1539 13.1544 14.9513C13.0025 14.7319 12.7325 14.6307 12.4962 14.4957C12.0574 14.2594 11.7536 13.8881 11.3485 13.618C10.9097 13.3142 10.454 13.0273 10.0827 12.6223C9.84645 12.386 9.62704 12.0991 9.37387 11.8796C9.10383 11.6096 8.80004 11.4071 8.49625 11.1708C7.77052 10.6138 7.14605 9.92186 6.52158 9.26364C6.30218 9.04423 6.08277 8.6898 6.2853 8.45352C6.40344 8.30162 6.6566 8.21724 6.63972 8.03158C6.60597 7.93032 6.52158 7.87969 6.4372 7.82906C6.11653 7.67716 5.71147 7.50838 5.62708 7.1202C5.54269 6.93455 5.6102 6.66451 5.77897 6.49573Z" fill="#FFFAFF"/>
<path d="M26.2215 26.7825C26.154 26.8501 26.0358 26.9007 25.9177 26.9176C25.7996 26.9344 25.6983 26.9007 25.5802 26.8838C25.3439 26.8163 25.1582 26.7319 25.0401 26.5463C24.8882 26.3268 24.8713 26.0737 24.635 25.9049C24.23 25.6349 23.7068 26.1581 23.2173 25.8374C22.9979 25.6855 22.8291 25.4492 22.6604 25.2467C22.3397 24.8248 21.9515 24.4366 21.5633 24.0821C21.2595 23.8121 20.9557 23.5758 20.7194 23.2383C20.5675 23.0189 20.5 22.7826 20.365 22.5463C20.1625 22.175 19.8924 21.8374 19.6224 21.4999C19.3017 21.1117 18.9811 20.4535 18.441 20.3185C18.3228 20.3016 18.2047 20.2847 18.0866 20.2341C17.8334 20.1497 17.6646 19.9134 17.4452 19.7953C17.2258 19.6771 16.9726 19.6265 16.7532 19.5083C16.3313 19.2889 16.4494 18.4957 16.922 18.6982C17.0402 18.7489 17.1077 18.8501 17.1752 18.9514C17.4621 19.2721 17.9178 19.3227 18.306 19.4746C19.0823 19.7784 19.6899 20.386 20.4156 20.8079C20.4832 20.8417 20.6013 20.8923 20.6519 20.8079C19.9262 20.1834 19.1836 19.5759 18.4579 18.9514C18.306 18.8333 18.171 18.6982 18.0697 18.5632C17.9684 18.3944 17.9178 18.2088 17.9853 18.04C18.0528 17.8712 18.2553 17.7362 18.4241 17.8037C18.6266 17.8712 18.711 18.1244 18.846 18.3269C18.9979 18.5463 19.268 18.6476 19.5043 18.7826C19.9431 19.0189 20.2469 19.3902 20.6519 19.6602C21.0907 19.964 21.5464 20.251 21.9177 20.656C22.154 20.8923 22.3734 21.1792 22.6266 21.3986C22.8966 21.6687 23.2004 21.8712 23.5042 22.1075C24.23 22.6644 24.8544 23.3564 25.4789 24.0146C25.6983 24.234 25.9177 24.5885 25.7152 24.8248C25.597 24.9767 25.3439 25.061 25.3607 25.2467C25.3945 25.348 25.4789 25.3986 25.5633 25.4492C25.8839 25.6011 26.289 25.7699 26.3734 26.1581C26.4578 26.3437 26.3903 26.6138 26.2215 26.7825Z" fill="#FFFAFF"/>
<path d="M1.6001 16.6942C1.6001 16.5987 1.64783 16.4794 1.71944 16.3839C1.79104 16.2884 1.88652 16.2407 1.98199 16.1691C2.19681 16.0497 2.38776 15.9781 2.60257 16.0259C2.86512 16.0736 3.05607 16.2407 3.34249 16.1929C3.81986 16.0975 3.81986 15.3575 4.3927 15.2382C4.65525 15.1905 4.94167 15.2382 5.20422 15.2621C5.72932 15.3337 6.2783 15.3337 6.8034 15.3098C7.20916 15.2859 7.59106 15.2382 7.99682 15.3098C8.25937 15.3575 8.47419 15.4769 8.73674 15.5485C9.1425 15.6678 9.57213 15.7156 10.0018 15.7633C10.503 15.811 11.1952 16.0497 11.6725 15.7633C11.768 15.6917 11.8635 15.6201 11.9828 15.5724C12.2215 15.453 12.5079 15.5008 12.7466 15.4292C12.9853 15.3575 13.2001 15.2143 13.4388 15.1427C13.8923 14.9995 14.3697 15.644 13.8923 15.8349C13.773 15.8826 13.6536 15.8588 13.5343 15.8349C13.1046 15.811 12.7466 16.0975 12.3647 16.2645C11.6009 16.5987 10.7417 16.5987 9.93015 16.8135C9.85855 16.8374 9.7392 16.8851 9.76307 16.9806C10.7178 16.909 11.6725 16.8135 12.6273 16.7419C12.8182 16.718 13.0092 16.718 13.1762 16.7419C13.3672 16.7896 13.5343 16.8851 13.6059 17.0522C13.6775 17.2193 13.6297 17.458 13.4627 17.5296C13.2717 17.625 13.033 17.5057 12.7944 17.458C12.5318 17.4102 12.2693 17.5296 12.0067 17.6012C11.5293 17.7444 11.052 17.6966 10.5746 17.7921C10.0495 17.8876 9.52439 18.0069 8.97542 17.9831C8.64126 17.9831 8.28323 17.9353 7.94908 17.9592C7.56718 17.9592 7.20916 18.0308 6.82727 18.0785C5.92027 18.1979 4.98941 18.1501 4.08241 18.1263C3.77212 18.1263 3.36636 18.0308 3.34249 17.7205C3.31862 17.5296 3.43796 17.2909 3.29475 17.1715C3.19928 17.1238 3.10381 17.1477 3.00834 17.1715C2.67418 17.2909 2.26842 17.458 1.93426 17.2431C1.74331 17.1715 1.6001 16.9329 1.6001 16.6942Z" fill="#FFFAFF"/>
<path d="M30.4001 16.5841C30.4001 16.6796 30.3524 16.7989 30.2808 16.8944C30.2091 16.9898 30.1137 17.0376 30.0182 17.1092C29.8034 17.2285 29.6124 17.3001 29.3976 17.2524C29.1351 17.2047 28.9441 17.0376 28.6577 17.0853C28.1803 17.1808 28.1803 17.9207 27.6075 18.0401C27.3449 18.0878 27.0585 18.0401 26.796 18.0162C26.2709 17.9446 25.7219 17.9446 25.1968 17.9684C24.791 17.9923 24.4091 18.0401 24.0034 17.9684C23.7408 17.9207 23.526 17.8014 23.2635 17.7298C22.8577 17.6104 22.4281 17.5627 21.9984 17.5149C21.4972 17.4672 20.805 17.2285 20.3277 17.5149C20.2322 17.5866 20.1367 17.6582 20.0174 17.7059C19.7787 17.8252 19.4923 17.7775 19.2536 17.8491C19.0149 17.9207 18.8001 18.0639 18.5614 18.1355C18.1079 18.2787 17.6305 17.6343 18.1079 17.4433C18.2272 17.3956 18.3466 17.4195 18.4659 17.4433C18.8956 17.4672 19.2536 17.1808 19.6355 17.0137C20.3993 16.6796 21.2585 16.6796 22.07 16.4647C22.1416 16.4409 22.261 16.3931 22.2371 16.2977C21.2824 16.3693 20.3277 16.4647 19.3729 16.5363C19.182 16.5602 18.991 16.5602 18.824 16.5363C18.633 16.4886 18.4659 16.3931 18.3943 16.2261C18.3227 16.059 18.3705 15.8203 18.5375 15.7487C18.7285 15.6532 18.9672 15.7726 19.2058 15.8203C19.4684 15.868 19.7309 15.7487 19.9935 15.6771C20.4709 15.5339 20.9482 15.5816 21.4256 15.4861C21.9507 15.3907 22.4758 15.2713 23.0248 15.2952C23.3589 15.2952 23.717 15.3429 24.0511 15.3191C24.433 15.3191 24.791 15.2475 25.1729 15.1997C26.0799 15.0804 27.0108 15.1281 27.9178 15.152C28.2281 15.152 28.6338 15.2475 28.6577 15.5577C28.6816 15.7487 28.5622 15.9874 28.7054 16.1067C28.8009 16.1545 28.8964 16.1306 28.9919 16.1067C29.326 15.9874 29.7318 15.8203 30.0659 16.0351C30.2569 16.1067 30.4001 16.3454 30.4001 16.5841Z" fill="#FFFAFF"/>
<path d="M26.2271 6.4898C26.1596 6.42229 26.0415 6.37166 25.9233 6.35478C25.8052 6.33791 25.7039 6.37166 25.5858 6.38853C25.3495 6.45604 25.1639 6.54044 25.0457 6.72609C24.8938 6.9455 24.8769 7.19866 24.6406 7.36743C24.2356 7.63747 23.7124 7.11427 23.2229 7.43494C23.0035 7.58684 22.8348 7.82312 22.666 8.02565C22.3453 8.44759 21.9571 8.83577 21.569 9.1902C21.2652 9.46024 20.9614 9.69652 20.7251 10.0341C20.5732 10.2535 20.5057 10.4898 20.3707 10.7261C20.1681 11.0974 19.8981 11.4349 19.628 11.7724C19.3074 12.1606 18.9867 12.8189 18.4466 12.9539C18.3285 12.9707 18.2103 12.9876 18.0922 13.0383C17.839 13.1226 17.6703 13.3589 17.4509 13.4771C17.2314 13.5952 16.9783 13.6459 16.7589 13.764C16.3369 13.9834 16.4551 14.7766 16.9277 14.5741C17.0458 14.5235 17.1133 14.4222 17.1808 14.3209C17.4677 14.0003 17.9234 13.9496 18.3116 13.7978C19.088 13.494 19.6956 12.8864 20.4213 12.4644C20.4888 12.4307 20.6069 12.38 20.6576 12.4644C19.9318 13.0889 19.1892 13.6965 18.4635 14.3209C18.3116 14.4391 18.1766 14.5741 18.0753 14.7091C17.9741 14.8779 17.9234 15.0636 17.9909 15.2323C18.0584 15.4011 18.261 15.5361 18.4297 15.4686C18.6323 15.4011 18.7167 15.1479 18.8517 14.9454C19.0036 14.726 19.2736 14.6247 19.5099 14.4897C19.9487 14.2534 20.2525 13.8821 20.6576 13.6121C21.0964 13.3083 21.5521 13.0214 21.9234 12.6163C22.1597 12.38 22.3791 12.0931 22.6322 11.8737C22.9023 11.6037 23.2061 11.4011 23.5099 11.1649C24.2356 10.6079 24.8601 9.91593 25.4845 9.25771C25.7039 9.0383 25.9233 8.68387 25.7208 8.44759C25.6027 8.29569 25.3495 8.2113 25.3664 8.02565C25.4001 7.92439 25.4845 7.87376 25.5689 7.82312C25.8896 7.67123 26.2946 7.50245 26.379 7.11427C26.4634 6.92862 26.3959 6.65858 26.2271 6.4898Z" fill="#FFFAFF"/>
<path d="M5.78462 26.7766C5.85213 26.8441 5.97027 26.8948 6.08841 26.9116C6.20655 26.9285 6.30782 26.8948 6.42596 26.8779C6.66225 26.8104 6.8479 26.726 6.96604 26.5403C7.11794 26.3209 7.13482 26.0678 7.3711 25.899C7.77616 25.629 8.29936 26.1522 8.78881 25.8315C9.00822 25.6796 9.17699 25.4433 9.34576 25.2408C9.66644 24.8188 10.0546 24.4307 10.4428 24.0762C10.7466 23.8062 11.0504 23.5699 11.2867 23.2324C11.4386 23.013 11.5061 22.7767 11.6411 22.5404C11.8436 22.1691 12.1137 21.8315 12.3837 21.494C12.7044 21.1058 13.0251 20.4476 13.5651 20.3126C13.6833 20.2957 13.8014 20.2788 13.9196 20.2282C14.1727 20.1438 14.3415 19.9075 14.5609 19.7894C14.7803 19.6712 15.0335 19.6206 15.2529 19.5024C15.6748 19.283 15.5567 18.4898 15.0841 18.6923C14.966 18.743 14.8985 18.8442 14.8309 18.9455C14.544 19.2662 14.0883 19.3168 13.7002 19.4687C12.9238 19.7725 12.3162 20.3801 11.5905 20.802C11.523 20.8358 11.4048 20.8864 11.3542 20.802C12.0799 20.1775 12.8225 19.57 13.5483 18.9455C13.7001 18.8273 13.8352 18.6923 13.9364 18.5573C14.0377 18.3885 14.0883 18.2029 14.0208 18.0341C13.9533 17.8653 13.7508 17.7303 13.582 17.7978C13.3795 17.8653 13.2951 18.1185 13.1601 18.321C13.0082 18.5404 12.7381 18.6417 12.5019 18.7767C12.063 19.013 11.7592 19.3843 11.3542 19.6543C10.9154 19.9581 10.4597 20.2451 10.0884 20.6501C9.85209 20.8864 9.63268 21.1733 9.37952 21.3927C9.10948 21.6628 8.80569 21.8653 8.5019 22.1016C7.77617 22.6585 7.1517 23.3505 6.52723 24.0087C6.30782 24.2281 6.08842 24.5826 6.29095 24.8188C6.40909 24.9707 6.66225 25.0551 6.64537 25.2408C6.61162 25.342 6.52723 25.3927 6.44284 25.4433C6.12217 25.5952 5.71711 25.764 5.63273 26.1522C5.54834 26.3378 5.61584 26.6079 5.78462 26.7766Z" fill="#FFFAFF"/>
<path d="M16.0611 2.23328C15.9656 2.23328 15.8462 2.28101 15.7508 2.35262C15.6553 2.42422 15.6076 2.5197 15.536 2.61517C15.4166 2.82999 15.345 3.02093 15.3927 3.23575C15.4405 3.4983 15.6076 3.68925 15.5598 3.97567C15.4643 4.45304 14.7244 4.45303 14.6051 5.02588C14.5574 5.28843 14.6051 5.57485 14.629 5.8374C14.7006 6.3625 14.7006 6.91148 14.6767 7.43658C14.6528 7.84234 14.6051 8.22423 14.6767 8.63C14.7244 8.89255 14.8438 9.10736 14.9154 9.36992C15.0347 9.77568 15.0825 10.2053 15.1302 10.6349C15.1779 11.1362 15.4166 11.8284 15.1302 12.3057C15.0586 12.4012 14.987 12.4967 14.9392 12.616C14.8199 12.8547 14.8676 13.1411 14.796 13.3798C14.7244 13.6185 14.5812 13.8333 14.5096 14.072C14.3664 14.5255 15.0108 15.0028 15.2018 14.5255C15.2495 14.4061 15.2257 14.2868 15.2018 14.1674C15.1779 13.7378 15.4644 13.3798 15.6314 12.9979C15.9656 12.2341 15.9656 11.3749 16.1804 10.5633C16.2043 10.4917 16.252 10.3724 16.3475 10.3963C16.2759 11.351 16.1804 12.3057 16.1088 13.2605C16.0849 13.4514 16.0849 13.6423 16.1088 13.8094C16.1565 14.0004 16.252 14.1674 16.4191 14.239C16.5862 14.3107 16.8248 14.2629 16.8964 14.0958C16.9919 13.9049 16.8726 13.6662 16.8248 13.4275C16.7771 13.165 16.8964 12.9024 16.9681 12.6399C17.1113 12.1625 17.0635 11.6851 17.159 11.2078C17.2545 10.6827 17.3738 10.1576 17.3499 9.6086C17.3499 9.27444 17.3022 8.91641 17.3261 8.58226C17.3261 8.20036 17.3977 7.84234 17.4454 7.46045C17.5648 6.55345 17.517 5.62259 17.4932 4.71559C17.4932 4.4053 17.3977 3.99954 17.0874 3.97567C16.8964 3.9518 16.6578 4.07114 16.5384 3.92793C16.4907 3.83246 16.5146 3.73699 16.5384 3.64151C16.6578 3.30736 16.8248 2.9016 16.61 2.56744C16.5384 2.37649 16.2997 2.23328 16.0611 2.23328Z" fill="#FFFAFF"/>
<path d="M15.951 31.0333C16.0464 31.0333 16.1658 30.9855 16.2613 30.9139C16.3567 30.8423 16.4045 30.7469 16.4761 30.6514C16.5954 30.4366 16.667 30.2456 16.6193 30.0308C16.5715 29.7683 16.4045 29.5773 16.4522 29.2909C16.5477 28.8135 17.2876 28.8135 17.4069 28.2407C17.4547 27.9781 17.4069 27.6917 17.3831 27.4292C17.3115 26.9041 17.3115 26.3551 17.3353 25.83C17.3592 25.4242 17.4069 25.0423 17.3353 24.6366C17.2876 24.374 17.1683 24.1592 17.0966 23.8966C16.9773 23.4909 16.9296 23.0612 16.8818 22.6316C16.8341 22.1304 16.5954 21.4382 16.8818 20.9608C16.9534 20.8654 17.0251 20.7699 17.0728 20.6505C17.1921 20.4119 17.1444 20.1254 17.216 19.8868C17.2876 19.6481 17.4308 19.4333 17.5024 19.1946C17.6456 18.7411 17.0012 18.2637 16.8102 18.7411C16.7625 18.8604 16.7864 18.9798 16.8102 19.0991C16.8341 19.5287 16.5477 19.8868 16.3806 20.2686C16.0464 21.0324 16.0464 21.8917 15.8316 22.7032C15.8078 22.7748 15.76 22.8942 15.6645 22.8703C15.7362 21.9156 15.8316 20.9608 15.9032 20.0061C15.9271 19.8152 15.9271 19.6242 15.9032 19.4571C15.8555 19.2662 15.76 19.0991 15.5929 19.0275C15.4259 18.9559 15.1872 19.0036 15.1156 19.1707C15.0201 19.3617 15.1394 19.6003 15.1872 19.839C15.2349 20.1016 15.1156 20.3641 15.044 20.6267C14.9008 21.104 14.9485 21.5814 14.853 22.0588C14.7576 22.5839 14.6382 23.109 14.6621 23.658C14.6621 23.9921 14.7098 24.3501 14.686 24.6843C14.686 25.0662 14.6143 25.4242 14.5666 25.8061C14.4473 26.7131 14.495 27.644 14.5189 28.551C14.5189 28.8613 14.6143 29.267 14.9246 29.2909C15.1156 29.3148 15.3543 29.1954 15.4736 29.3386C15.5213 29.4341 15.4975 29.5296 15.4736 29.625C15.3543 29.9592 15.1872 30.365 15.402 30.6991C15.4736 30.8901 15.7123 31.0333 15.951 31.0333Z" fill="#FFFAFF"/>
<path d="M5.77897 6.49573C5.84648 6.42822 5.96462 6.37759 6.08276 6.36072C6.20091 6.34384 6.30218 6.37759 6.42032 6.39447C6.6566 6.46198 6.84225 6.54637 6.96039 6.73202C7.11229 6.95143 7.12917 7.20459 7.36546 7.37336C7.77052 7.6434 8.29372 7.1202 8.78316 7.44087C9.00257 7.59277 9.17134 7.82905 9.34012 8.03158C9.66079 8.45352 10.049 8.84171 10.4372 9.19613C10.7409 9.46617 11.0447 9.70246 11.281 10.04C11.4329 10.2594 11.5004 10.4957 11.6355 10.732C11.838 11.1033 12.108 11.4408 12.3781 11.7784C12.6987 12.1666 13.0194 12.8248 13.5595 12.9598C13.6776 12.9767 13.7958 12.9936 13.9139 13.0442C14.1671 13.1286 14.3358 13.3649 14.5553 13.483C14.7747 13.6011 15.0278 13.6518 15.2472 13.7699C15.6692 13.9893 15.551 14.7826 15.0785 14.58C14.9603 14.5294 14.8928 14.4281 14.8253 14.3269C14.5384 14.0062 14.0827 13.9556 13.6945 13.8037C12.9181 13.4999 12.3106 12.8923 11.5848 12.4704C11.5173 12.4366 11.3992 12.386 11.3485 12.4704C12.0743 13.0948 12.8169 13.7024 13.5426 14.3269C13.6945 14.445 13.8295 14.58 13.9308 14.7151C14.032 14.8838 14.0827 15.0695 14.0152 15.2383C13.9477 15.407 13.7451 15.5421 13.5764 15.4745C13.3738 15.407 13.2894 15.1539 13.1544 14.9513C13.0025 14.7319 12.7325 14.6307 12.4962 14.4957C12.0574 14.2594 11.7536 13.8881 11.3485 13.618C10.9097 13.3142 10.454 13.0273 10.0827 12.6223C9.84645 12.386 9.62704 12.0991 9.37387 11.8796C9.10383 11.6096 8.80004 11.4071 8.49625 11.1708C7.77052 10.6138 7.14605 9.92186 6.52158 9.26364C6.30218 9.04423 6.08277 8.6898 6.2853 8.45352C6.40344 8.30162 6.6566 8.21724 6.63972 8.03158C6.60597 7.93032 6.52158 7.87969 6.4372 7.82906C6.11653 7.67716 5.71147 7.50838 5.62708 7.1202C5.54269 6.93455 5.6102 6.66451 5.77897 6.49573Z" stroke="#FFFAFF" stroke-width="0.5" mask="url(#path-2-outside-1_3044_61162)"/>
<path d="M26.2215 26.7825C26.154 26.8501 26.0358 26.9007 25.9177 26.9176C25.7996 26.9344 25.6983 26.9007 25.5802 26.8838C25.3439 26.8163 25.1582 26.7319 25.0401 26.5463C24.8882 26.3268 24.8713 26.0737 24.635 25.9049C24.23 25.6349 23.7068 26.1581 23.2173 25.8374C22.9979 25.6855 22.8291 25.4492 22.6604 25.2467C22.3397 24.8248 21.9515 24.4366 21.5633 24.0821C21.2595 23.8121 20.9557 23.5758 20.7194 23.2383C20.5675 23.0189 20.5 22.7826 20.365 22.5463C20.1625 22.175 19.8924 21.8374 19.6224 21.4999C19.3017 21.1117 18.9811 20.4535 18.441 20.3185C18.3228 20.3016 18.2047 20.2847 18.0866 20.2341C17.8334 20.1497 17.6646 19.9134 17.4452 19.7953C17.2258 19.6771 16.9726 19.6265 16.7532 19.5083C16.3313 19.2889 16.4494 18.4957 16.922 18.6982C17.0402 18.7489 17.1077 18.8501 17.1752 18.9514C17.4621 19.2721 17.9178 19.3227 18.306 19.4746C19.0823 19.7784 19.6899 20.386 20.4156 20.8079C20.4832 20.8417 20.6013 20.8923 20.6519 20.8079C19.9262 20.1834 19.1836 19.5759 18.4579 18.9514C18.306 18.8333 18.171 18.6982 18.0697 18.5632C17.9684 18.3944 17.9178 18.2088 17.9853 18.04C18.0528 17.8712 18.2553 17.7362 18.4241 17.8037C18.6266 17.8712 18.711 18.1244 18.846 18.3269C18.9979 18.5463 19.268 18.6476 19.5043 18.7826C19.9431 19.0189 20.2469 19.3902 20.6519 19.6602C21.0907 19.964 21.5464 20.251 21.9177 20.656C22.154 20.8923 22.3734 21.1792 22.6266 21.3986C22.8966 21.6687 23.2004 21.8712 23.5042 22.1075C24.23 22.6644 24.8544 23.3564 25.4789 24.0146C25.6983 24.234 25.9177 24.5885 25.7152 24.8248C25.597 24.9767 25.3439 25.061 25.3607 25.2467C25.3945 25.348 25.4789 25.3986 25.5633 25.4492C25.8839 25.6011 26.289 25.7699 26.3734 26.1581C26.4578 26.3437 26.3903 26.6138 26.2215 26.7825Z" stroke="#FFFAFF" stroke-width="0.5" mask="url(#path-2-outside-1_3044_61162)"/>
<path d="M1.6001 16.6942C1.6001 16.5987 1.64783 16.4794 1.71944 16.3839C1.79104 16.2884 1.88652 16.2407 1.98199 16.1691C2.19681 16.0497 2.38776 15.9781 2.60257 16.0259C2.86512 16.0736 3.05607 16.2407 3.34249 16.1929C3.81986 16.0975 3.81986 15.3575 4.3927 15.2382C4.65525 15.1905 4.94167 15.2382 5.20422 15.2621C5.72932 15.3337 6.2783 15.3337 6.8034 15.3098C7.20916 15.2859 7.59106 15.2382 7.99682 15.3098C8.25937 15.3575 8.47419 15.4769 8.73674 15.5485C9.1425 15.6678 9.57213 15.7156 10.0018 15.7633C10.503 15.811 11.1952 16.0497 11.6725 15.7633C11.768 15.6917 11.8635 15.6201 11.9828 15.5724C12.2215 15.453 12.5079 15.5008 12.7466 15.4292C12.9853 15.3575 13.2001 15.2143 13.4388 15.1427C13.8923 14.9995 14.3697 15.644 13.8923 15.8349C13.773 15.8826 13.6536 15.8588 13.5343 15.8349C13.1046 15.811 12.7466 16.0975 12.3647 16.2645C11.6009 16.5987 10.7417 16.5987 9.93015 16.8135C9.85855 16.8374 9.7392 16.8851 9.76307 16.9806C10.7178 16.909 11.6725 16.8135 12.6273 16.7419C12.8182 16.718 13.0092 16.718 13.1762 16.7419C13.3672 16.7896 13.5343 16.8851 13.6059 17.0522C13.6775 17.2193 13.6297 17.458 13.4627 17.5296C13.2717 17.625 13.033 17.5057 12.7944 17.458C12.5318 17.4102 12.2693 17.5296 12.0067 17.6012C11.5293 17.7444 11.052 17.6966 10.5746 17.7921C10.0495 17.8876 9.52439 18.0069 8.97542 17.9831C8.64126 17.9831 8.28323 17.9353 7.94908 17.9592C7.56718 17.9592 7.20916 18.0308 6.82727 18.0785C5.92027 18.1979 4.98941 18.1501 4.08241 18.1263C3.77212 18.1263 3.36636 18.0308 3.34249 17.7205C3.31862 17.5296 3.43796 17.2909 3.29475 17.1715C3.19928 17.1238 3.10381 17.1477 3.00834 17.1715C2.67418 17.2909 2.26842 17.458 1.93426 17.2431C1.74331 17.1715 1.6001 16.9329 1.6001 16.6942Z" stroke="#FFFAFF" stroke-width="0.5" mask="url(#path-2-outside-1_3044_61162)"/>
<path d="M30.4001 16.5841C30.4001 16.6796 30.3524 16.7989 30.2808 16.8944C30.2091 16.9898 30.1137 17.0376 30.0182 17.1092C29.8034 17.2285 29.6124 17.3001 29.3976 17.2524C29.1351 17.2047 28.9441 17.0376 28.6577 17.0853C28.1803 17.1808 28.1803 17.9207 27.6075 18.0401C27.3449 18.0878 27.0585 18.0401 26.796 18.0162C26.2709 17.9446 25.7219 17.9446 25.1968 17.9684C24.791 17.9923 24.4091 18.0401 24.0034 17.9684C23.7408 17.9207 23.526 17.8014 23.2635 17.7298C22.8577 17.6104 22.4281 17.5627 21.9984 17.5149C21.4972 17.4672 20.805 17.2285 20.3277 17.5149C20.2322 17.5866 20.1367 17.6582 20.0174 17.7059C19.7787 17.8252 19.4923 17.7775 19.2536 17.8491C19.0149 17.9207 18.8001 18.0639 18.5614 18.1355C18.1079 18.2787 17.6305 17.6343 18.1079 17.4433C18.2272 17.3956 18.3466 17.4195 18.4659 17.4433C18.8956 17.4672 19.2536 17.1808 19.6355 17.0137C20.3993 16.6796 21.2585 16.6796 22.07 16.4647C22.1416 16.4409 22.261 16.3931 22.2371 16.2977C21.2824 16.3693 20.3277 16.4647 19.3729 16.5363C19.182 16.5602 18.991 16.5602 18.824 16.5363C18.633 16.4886 18.4659 16.3931 18.3943 16.2261C18.3227 16.059 18.3705 15.8203 18.5375 15.7487C18.7285 15.6532 18.9672 15.7726 19.2058 15.8203C19.4684 15.868 19.7309 15.7487 19.9935 15.6771C20.4709 15.5339 20.9482 15.5816 21.4256 15.4861C21.9507 15.3907 22.4758 15.2713 23.0248 15.2952C23.3589 15.2952 23.717 15.3429 24.0511 15.3191C24.433 15.3191 24.791 15.2475 25.1729 15.1997C26.0799 15.0804 27.0108 15.1281 27.9178 15.152C28.2281 15.152 28.6338 15.2475 28.6577 15.5577C28.6816 15.7487 28.5622 15.9874 28.7054 16.1067C28.8009 16.1545 28.8964 16.1306 28.9919 16.1067C29.326 15.9874 29.7318 15.8203 30.0659 16.0351C30.2569 16.1067 30.4001 16.3454 30.4001 16.5841Z" stroke="#FFFAFF" stroke-width="0.5" mask="url(#path-2-outside-1_3044_61162)"/>
<path d="M26.2271 6.4898C26.1596 6.42229 26.0415 6.37166 25.9233 6.35478C25.8052 6.33791 25.7039 6.37166 25.5858 6.38853C25.3495 6.45604 25.1639 6.54044 25.0457 6.72609C24.8938 6.9455 24.8769 7.19866 24.6406 7.36743C24.2356 7.63747 23.7124 7.11427 23.2229 7.43494C23.0035 7.58684 22.8348 7.82312 22.666 8.02565C22.3453 8.44759 21.9571 8.83577 21.569 9.1902C21.2652 9.46024 20.9614 9.69652 20.7251 10.0341C20.5732 10.2535 20.5057 10.4898 20.3707 10.7261C20.1681 11.0974 19.8981 11.4349 19.628 11.7724C19.3074 12.1606 18.9867 12.8189 18.4466 12.9539C18.3285 12.9707 18.2103 12.9876 18.0922 13.0383C17.839 13.1226 17.6703 13.3589 17.4509 13.4771C17.2314 13.5952 16.9783 13.6459 16.7589 13.764C16.3369 13.9834 16.4551 14.7766 16.9277 14.5741C17.0458 14.5235 17.1133 14.4222 17.1808 14.3209C17.4677 14.0003 17.9234 13.9496 18.3116 13.7978C19.088 13.494 19.6956 12.8864 20.4213 12.4644C20.4888 12.4307 20.6069 12.38 20.6576 12.4644C19.9318 13.0889 19.1892 13.6965 18.4635 14.3209C18.3116 14.4391 18.1766 14.5741 18.0753 14.7091C17.9741 14.8779 17.9234 15.0636 17.9909 15.2323C18.0584 15.4011 18.261 15.5361 18.4297 15.4686C18.6323 15.4011 18.7167 15.1479 18.8517 14.9454C19.0036 14.726 19.2736 14.6247 19.5099 14.4897C19.9487 14.2534 20.2525 13.8821 20.6576 13.6121C21.0964 13.3083 21.5521 13.0214 21.9234 12.6163C22.1597 12.38 22.3791 12.0931 22.6322 11.8737C22.9023 11.6037 23.2061 11.4011 23.5099 11.1649C24.2356 10.6079 24.8601 9.91593 25.4845 9.25771C25.7039 9.0383 25.9233 8.68387 25.7208 8.44759C25.6027 8.29569 25.3495 8.2113 25.3664 8.02565C25.4001 7.92439 25.4845 7.87376 25.5689 7.82312C25.8896 7.67123 26.2946 7.50245 26.379 7.11427C26.4634 6.92862 26.3959 6.65858 26.2271 6.4898Z" stroke="#FFFAFF" stroke-width="0.5" mask="url(#path-2-outside-1_3044_61162)"/>
<path d="M5.78462 26.7766C5.85213 26.8441 5.97027 26.8948 6.08841 26.9116C6.20655 26.9285 6.30782 26.8948 6.42596 26.8779C6.66225 26.8104 6.8479 26.726 6.96604 26.5403C7.11794 26.3209 7.13482 26.0678 7.3711 25.899C7.77616 25.629 8.29936 26.1522 8.78881 25.8315C9.00822 25.6796 9.17699 25.4433 9.34576 25.2408C9.66644 24.8188 10.0546 24.4307 10.4428 24.0762C10.7466 23.8062 11.0504 23.5699 11.2867 23.2324C11.4386 23.013 11.5061 22.7767 11.6411 22.5404C11.8436 22.1691 12.1137 21.8315 12.3837 21.494C12.7044 21.1058 13.0251 20.4476 13.5651 20.3126C13.6833 20.2957 13.8014 20.2788 13.9196 20.2282C14.1727 20.1438 14.3415 19.9075 14.5609 19.7894C14.7803 19.6712 15.0335 19.6206 15.2529 19.5024C15.6748 19.283 15.5567 18.4898 15.0841 18.6923C14.966 18.743 14.8985 18.8442 14.8309 18.9455C14.544 19.2662 14.0883 19.3168 13.7002 19.4687C12.9238 19.7725 12.3162 20.3801 11.5905 20.802C11.523 20.8358 11.4048 20.8864 11.3542 20.802C12.0799 20.1775 12.8225 19.57 13.5483 18.9455C13.7001 18.8273 13.8352 18.6923 13.9364 18.5573C14.0377 18.3885 14.0883 18.2029 14.0208 18.0341C13.9533 17.8653 13.7508 17.7303 13.582 17.7978C13.3795 17.8653 13.2951 18.1185 13.1601 18.321C13.0082 18.5404 12.7381 18.6417 12.5019 18.7767C12.063 19.013 11.7592 19.3843 11.3542 19.6543C10.9154 19.9581 10.4597 20.2451 10.0884 20.6501C9.85209 20.8864 9.63268 21.1733 9.37952 21.3927C9.10948 21.6628 8.80569 21.8653 8.5019 22.1016C7.77617 22.6585 7.1517 23.3505 6.52723 24.0087C6.30782 24.2281 6.08842 24.5826 6.29095 24.8188C6.40909 24.9707 6.66225 25.0551 6.64537 25.2408C6.61162 25.342 6.52723 25.3927 6.44284 25.4433C6.12217 25.5952 5.71711 25.764 5.63273 26.1522C5.54834 26.3378 5.61584 26.6079 5.78462 26.7766Z" stroke="#FFFAFF" stroke-width="0.5" mask="url(#path-2-outside-1_3044_61162)"/>
<path d="M16.0611 2.23328C15.9656 2.23328 15.8462 2.28101 15.7508 2.35262C15.6553 2.42422 15.6076 2.5197 15.536 2.61517C15.4166 2.82999 15.345 3.02093 15.3927 3.23575C15.4405 3.4983 15.6076 3.68925 15.5598 3.97567C15.4643 4.45304 14.7244 4.45303 14.6051 5.02588C14.5574 5.28843 14.6051 5.57485 14.629 5.8374C14.7006 6.3625 14.7006 6.91148 14.6767 7.43658C14.6528 7.84234 14.6051 8.22423 14.6767 8.63C14.7244 8.89255 14.8438 9.10736 14.9154 9.36992C15.0347 9.77568 15.0825 10.2053 15.1302 10.6349C15.1779 11.1362 15.4166 11.8284 15.1302 12.3057C15.0586 12.4012 14.987 12.4967 14.9392 12.616C14.8199 12.8547 14.8676 13.1411 14.796 13.3798C14.7244 13.6185 14.5812 13.8333 14.5096 14.072C14.3664 14.5255 15.0108 15.0028 15.2018 14.5255C15.2495 14.4061 15.2257 14.2868 15.2018 14.1674C15.1779 13.7378 15.4644 13.3798 15.6314 12.9979C15.9656 12.2341 15.9656 11.3749 16.1804 10.5633C16.2043 10.4917 16.252 10.3724 16.3475 10.3963C16.2759 11.351 16.1804 12.3057 16.1088 13.2605C16.0849 13.4514 16.0849 13.6423 16.1088 13.8094C16.1565 14.0004 16.252 14.1674 16.4191 14.239C16.5862 14.3107 16.8248 14.2629 16.8964 14.0958C16.9919 13.9049 16.8726 13.6662 16.8248 13.4275C16.7771 13.165 16.8964 12.9024 16.9681 12.6399C17.1113 12.1625 17.0635 11.6851 17.159 11.2078C17.2545 10.6827 17.3738 10.1576 17.3499 9.6086C17.3499 9.27444 17.3022 8.91641 17.3261 8.58226C17.3261 8.20036 17.3977 7.84234 17.4454 7.46045C17.5648 6.55345 17.517 5.62259 17.4932 4.71559C17.4932 4.4053 17.3977 3.99954 17.0874 3.97567C16.8964 3.9518 16.6578 4.07114 16.5384 3.92793C16.4907 3.83246 16.5146 3.73699 16.5384 3.64151C16.6578 3.30736 16.8248 2.9016 16.61 2.56744C16.5384 2.37649 16.2997 2.23328 16.0611 2.23328Z" stroke="#FFFAFF" stroke-width="0.5" mask="url(#path-2-outside-1_3044_61162)"/>
<path d="M15.951 31.0333C16.0464 31.0333 16.1658 30.9855 16.2613 30.9139C16.3567 30.8423 16.4045 30.7469 16.4761 30.6514C16.5954 30.4366 16.667 30.2456 16.6193 30.0308C16.5715 29.7683 16.4045 29.5773 16.4522 29.2909C16.5477 28.8135 17.2876 28.8135 17.4069 28.2407C17.4547 27.9781 17.4069 27.6917 17.3831 27.4292C17.3115 26.9041 17.3115 26.3551 17.3353 25.83C17.3592 25.4242 17.4069 25.0423 17.3353 24.6366C17.2876 24.374 17.1683 24.1592 17.0966 23.8966C16.9773 23.4909 16.9296 23.0612 16.8818 22.6316C16.8341 22.1304 16.5954 21.4382 16.8818 20.9608C16.9534 20.8654 17.0251 20.7699 17.0728 20.6505C17.1921 20.4119 17.1444 20.1254 17.216 19.8868C17.2876 19.6481 17.4308 19.4333 17.5024 19.1946C17.6456 18.7411 17.0012 18.2637 16.8102 18.7411C16.7625 18.8604 16.7864 18.9798 16.8102 19.0991C16.8341 19.5287 16.5477 19.8868 16.3806 20.2686C16.0464 21.0324 16.0464 21.8917 15.8316 22.7032C15.8078 22.7748 15.76 22.8942 15.6645 22.8703C15.7362 21.9156 15.8316 20.9608 15.9032 20.0061C15.9271 19.8152 15.9271 19.6242 15.9032 19.4571C15.8555 19.2662 15.76 19.0991 15.5929 19.0275C15.4259 18.9559 15.1872 19.0036 15.1156 19.1707C15.0201 19.3617 15.1394 19.6003 15.1872 19.839C15.2349 20.1016 15.1156 20.3641 15.044 20.6267C14.9008 21.104 14.9485 21.5814 14.853 22.0588C14.7576 22.5839 14.6382 23.109 14.6621 23.658C14.6621 23.9921 14.7098 24.3501 14.686 24.6843C14.686 25.0662 14.6143 25.4242 14.5666 25.8061C14.4473 26.7131 14.495 27.644 14.5189 28.551C14.5189 28.8613 14.6143 29.267 14.9246 29.2909C15.1156 29.3148 15.3543 29.1954 15.4736 29.3386C15.5213 29.4341 15.4975 29.5296 15.4736 29.625C15.3543 29.9592 15.1872 30.365 15.402 30.6991C15.4736 30.8901 15.7123 31.0333 15.951 31.0333Z" stroke="#FFFAFF" stroke-width="0.5" mask="url(#path-2-outside-1_3044_61162)"/>
</svg>
